<?xml version="1.0" encoding="utf-8"?>
<!-- Generator: Adobe Illustrator 16.0.0, SVG Export Plug-In . SVG Version: 6.00 Build 0)  -->
<!DOCTYPE svg PUBLIC "-//W3C//DTD SVG 1.1//EN" "http://www.w3.org/Graphics/SVG/1.1/DTD/svg11.dtd">
<svg version="1.1" id="Layer_1" xmlns="http://www.w3.org/2000/svg" xmlns:xlink="http://www.w3.org/1999/xlink" x="0px" y="0px"
	 width="500px" height="347.359px" viewBox="0 0 500 347.359" enable-background="new 0 0 500 347.359" xml:space="preserve">
<path fill-rule="evenodd" clip-rule="evenodd" fill="#2D2D2D" d="M500.98,193.289c-1.79-0.074-3.58-0.211-5.37-0.211
	c-163.753-0.01-327.506-0.01-491.259,0c-1.79,0-3.581,0.137-5.371,0.211c0-13.072,0-26.146,0-39.219
	c1.79,0.073,3.581,0.21,5.371,0.21c163.753,0.01,327.506,0.01,491.259,0c1.79,0,3.58-0.137,5.37-0.21
	C500.98,167.144,500.98,180.217,500.98,193.289z"/>
<path fill-rule="evenodd" clip-rule="evenodd" fill="#2D2D2D" d="M-1.02,0.137c1.63-0.046,3.261-0.132,4.891-0.132
	c164.073-0.006,328.146-0.006,492.219,0c1.631,0,3.26,0.086,4.891,0.132c0,12.746,0,25.492,0,38.238
	c-1.468,0.03-2.937,0.087-4.404,0.087c-164.397,0.004-328.794,0.004-493.191,0c-1.468,0-2.937-0.057-4.405-0.087
	C-1.02,25.629-1.02,12.883-1.02,0.137z"/>
<path fill-rule="evenodd" clip-rule="evenodd" fill="#2D2D2D" d="M500.98,347.223c-1.631,0.046-3.26,0.132-4.891,0.132
	c-164.072,0.006-328.146,0.006-492.219,0c-1.63,0-3.261-0.086-4.891-0.132c0-12.746,0-25.492,0-38.238
	c1.468-0.03,2.937-0.087,4.405-0.087c164.396-0.004,328.793-0.004,493.191,0c1.468,0,2.937,0.057,4.404,0.087
	C500.98,321.73,500.98,334.477,500.98,347.223z"/>
</svg>
